<?xml version="1.0" encoding="utf-8"?>
<!-- Generator: Adobe Illustrator 14.0.0, SVG Export Plug-In . SVG Version: 6.00 Build 43363)  -->
<!DOCTYPE svg PUBLIC "-//W3C//DTD SVG 1.1//EN" "http://www.w3.org/Graphics/SVG/1.1/DTD/svg11.dtd">
<svg version="1.1" xmlns="http://www.w3.org/2000/svg" xmlns:xlink="http://www.w3.org/1999/xlink" x="0px" y="0px" width="700px"
	 height="700px" viewBox="0 0 700 700" enable-background="new 0 0 700 700" xml:space="preserve">
<g id="Ebene_1" display="none">
	<g transform="translate(0.000000,700.000000) scale(0.100000,-0.100000)" display="inline">
		
			<linearGradient id="SVGID_1_" gradientUnits="userSpaceOnUse" x1="3212.0017" y1="3501.0422" x2="3269.6013" y2="3501.0422" gradientTransform="matrix(1 0 0 1 3.242493e-005 7.057167e-005)">
			<stop  offset="0" style="stop-color:#FFFFFF"/>
			<stop  offset="1" style="stop-color:#000000"/>
		</linearGradient>
		<path fill="url(#SVGID_1_)" d="M3252.998,6411.999l-40.996-2.998v-2910V589.998l63.999-0.996c35,0,146.997,0,248.999,0
			s202.998,0,224.004,0l38.994,0.996v2910.01v2909.99l-25.996,1.006C3640.996,6412.995,3287.002,6414.001,3252.998,6411.999z"/>
		
			<linearGradient id="SVGID_2_" gradientUnits="userSpaceOnUse" x1="2036.7479" y1="3499.9973" x2="2095.5732" y2="3499.9973" gradientTransform="matrix(1 0 0 1 3.242493e-005 7.057167e-005)">
			<stop  offset="0" style="stop-color:#FFFFFF"/>
			<stop  offset="1" style="stop-color:#000000"/>
		</linearGradient>
		<path fill="url(#SVGID_2_)" d="M2038.999,5246.003c-2.998-3.008-2.998-3460,0-3487.998c1.001-5,133.003-8.008,293.999-8.008H2625
			v1750.01v1749.99h-291.001C2173.999,5249.997,2041.001,5247.995,2038.999,5246.003z"/>
		
			<linearGradient id="SVGID_3_" gradientUnits="userSpaceOnUse" x1="4374.9995" y1="3499.9973" x2="4433.8804" y2="3499.9973" gradientTransform="matrix(1 0 0 1 3.242493e-005 7.057167e-005)">
			<stop  offset="0" style="stop-color:#FFFFFF"/>
			<stop  offset="1" style="stop-color:#000000"/>
		</linearGradient>
		<path fill="url(#SVGID_3_)" d="M4375,3500.007v-1750.01h290.996c225,0,293.008,3.008,296.006,13.008s2.002,3431.992-1.006,3474.99
			c-0.996,9.004-66.992,12.002-293.994,12.002H4375V3500.007z"/>
		
			<linearGradient id="SVGID_4_" gradientUnits="userSpaceOnUse" x1="874.9999" y1="3500.0022" x2="933.6752" y2="3500.0022" gradientTransform="matrix(1 0 0 1 3.242493e-005 7.057167e-005)">
			<stop  offset="0" style="stop-color:#FFFFFF"/>
			<stop  offset="1" style="stop-color:#000000"/>
		</linearGradient>
		<path fill="url(#SVGID_4_)" d="M876.001,3508.005c1.001-321.006,1.997-586.006,2.998-590c0-5,132.002-7.998,291.001-7.998
			c160,0,290,2.998,291.001,7.998c1.001,8.994,1.001,1142.998,0,1159.99c-1.001,9.004-67.002,12.002-293.999,12.002H875
			L876.001,3508.005z"/>
		
			<linearGradient id="SVGID_5_" gradientUnits="userSpaceOnUse" x1="5538.2515" y1="3500.8567" x2="5596.8804" y2="3500.8567" gradientTransform="matrix(1 0 0 1 3.242493e-005 7.057167e-005)">
			<stop  offset="0" style="stop-color:#FFFFFF"/>
			<stop  offset="1" style="stop-color:#000000"/>
		</linearGradient>
		<path fill="url(#SVGID_5_)" d="M5539.003,4087.995c-1.006-3.994-1.006-1137.988,0-1159.99c0.996-16.006,23.994-17.002,290-17.002
			c210.996,0.996,290.996,4.004,292.998,12.002c3.994,10,2.998,1138.994-1.006,1159.99
			C6120,4089.001,5540.996,4094.001,5539.003,4087.995z"/>
	</g>
</g>
<g id="Ebene_2">
	<g>
		<linearGradient id="SVGID_6_" gradientUnits="userSpaceOnUse" x1="350.0005" y1="641.0002" x2="350.0004" y2="59.0007">
			<stop  offset="0" style="stop-color:#48C848"/>
			<stop  offset="8.175300e-004" style="stop-color:#4CCC48"/>
			<stop  offset="0.0061" style="stop-color:#62DF48"/>
			<stop  offset="0.0122" style="stop-color:#73ED48"/>
			<stop  offset="0.0199" style="stop-color:#7EF748"/>
			<stop  offset="0.0307" style="stop-color:#85FD48"/>
			<stop  offset="0.0606" style="stop-color:#87FF48"/>
			<stop  offset="0.1818" style="stop-color:#66D848"/>
			<stop  offset="0.2" style="stop-color:#48C848"/>
			<stop  offset="0.2023" style="stop-color:#48CA48"/>
			<stop  offset="0.2257" style="stop-color:#48D548"/>
			<stop  offset="0.2586" style="stop-color:#48DC48"/>
			<stop  offset="0.35" style="stop-color:#48DE48"/>
			<stop  offset="0.4077" style="stop-color:#66EE48"/>
			<stop  offset="0.4667" style="stop-color:#7EFA48"/>
			<stop  offset="0.503" style="stop-color:#87FF48"/>
			<stop  offset="0.5651" style="stop-color:#83FD48"/>
			<stop  offset="0.6282" style="stop-color:#77F648"/>
			<stop  offset="0.6916" style="stop-color:#62EC48"/>
			<stop  offset="0.7515" style="stop-color:#48DE48"/>
			<stop  offset="0.7811" style="stop-color:#48DC48"/>
			<stop  offset="0.7917" style="stop-color:#48D548"/>
			<stop  offset="0.7993" style="stop-color:#48CA48"/>
			<stop  offset="0.8" style="stop-color:#48C848"/>
			<stop  offset="0.9576" style="stop-color:#87FF48"/>
			<stop  offset="0.9785" style="stop-color:#85FD48"/>
			<stop  offset="0.9861" style="stop-color:#7EF748"/>
			<stop  offset="0.9914" style="stop-color:#73ED48"/>
			<stop  offset="0.9957" style="stop-color:#62DF48"/>
			<stop  offset="0.9994" style="stop-color:#4CCC48"/>
			<stop  offset="1" style="stop-color:#48C848"/>
		</linearGradient>
		<path fill="url(#SVGID_6_)" d="M378.8,69c0-5.5-4.5-10-10-10h-37.6c-5.5,0-10,4.5-10,10v562c0,5.5,4.5,10,10,10h37.6
			c5.5,0,10-4.5,10-10V69z"/>
	</g>
</g>
<g id="Ebene_4">
	<g>
		<linearGradient id="SVGID_7_" gradientUnits="userSpaceOnUse" x1="233.1997" y1="525.0002" x2="233.1997" y2="175.4001">
			<stop  offset="0" style="stop-color:#48C848"/>
			<stop  offset="8.175300e-004" style="stop-color:#4CCC48"/>
			<stop  offset="0.0061" style="stop-color:#62DF48"/>
			<stop  offset="0.0122" style="stop-color:#73ED48"/>
			<stop  offset="0.0199" style="stop-color:#7EF748"/>
			<stop  offset="0.0307" style="stop-color:#85FD48"/>
			<stop  offset="0.0606" style="stop-color:#87FF48"/>
			<stop  offset="0.1818" style="stop-color:#66D848"/>
			<stop  offset="0.2" style="stop-color:#48C848"/>
			<stop  offset="0.2023" style="stop-color:#48CA48"/>
			<stop  offset="0.2257" style="stop-color:#48D548"/>
			<stop  offset="0.2586" style="stop-color:#48DC48"/>
			<stop  offset="0.35" style="stop-color:#48DE48"/>
			<stop  offset="0.4077" style="stop-color:#66EE48"/>
			<stop  offset="0.4667" style="stop-color:#7EFA48"/>
			<stop  offset="0.503" style="stop-color:#87FF48"/>
			<stop  offset="0.5651" style="stop-color:#83FD48"/>
			<stop  offset="0.6282" style="stop-color:#77F648"/>
			<stop  offset="0.6916" style="stop-color:#62EC48"/>
			<stop  offset="0.7515" style="stop-color:#48DE48"/>
			<stop  offset="0.7811" style="stop-color:#48DC48"/>
			<stop  offset="0.7917" style="stop-color:#48D548"/>
			<stop  offset="0.7993" style="stop-color:#48CA48"/>
			<stop  offset="0.8" style="stop-color:#48C848"/>
			<stop  offset="0.9576" style="stop-color:#87FF48"/>
			<stop  offset="0.9785" style="stop-color:#85FD48"/>
			<stop  offset="0.9861" style="stop-color:#7EF748"/>
			<stop  offset="0.9914" style="stop-color:#73ED48"/>
			<stop  offset="0.9957" style="stop-color:#62DF48"/>
			<stop  offset="0.9994" style="stop-color:#4CCC48"/>
			<stop  offset="1" style="stop-color:#48C848"/>
		</linearGradient>
		<path fill="url(#SVGID_7_)" d="M262.5,515c0,5.5-4.5,10-10,10h-38.6c-5.5,0-10-4.5-10-10V185.4c0-5.5,4.5-10,10-10h38.6
			c5.5,0,10,4.5,10,10V515z"/>
	</g>
	<g>
		<linearGradient id="SVGID_8_" gradientUnits="userSpaceOnUse" x1="466.8496" y1="523.6995" x2="466.8496" y2="175.0007">
			<stop  offset="0" style="stop-color:#48C848"/>
			<stop  offset="8.175300e-004" style="stop-color:#4CCC48"/>
			<stop  offset="0.0061" style="stop-color:#62DF48"/>
			<stop  offset="0.0122" style="stop-color:#73ED48"/>
			<stop  offset="0.0199" style="stop-color:#7EF748"/>
			<stop  offset="0.0307" style="stop-color:#85FD48"/>
			<stop  offset="0.0606" style="stop-color:#87FF48"/>
			<stop  offset="0.1818" style="stop-color:#66D848"/>
			<stop  offset="0.2" style="stop-color:#48C848"/>
			<stop  offset="0.2023" style="stop-color:#48CA48"/>
			<stop  offset="0.2257" style="stop-color:#48D548"/>
			<stop  offset="0.2586" style="stop-color:#48DC48"/>
			<stop  offset="0.35" style="stop-color:#48DE48"/>
			<stop  offset="0.4077" style="stop-color:#66EE48"/>
			<stop  offset="0.4667" style="stop-color:#7EFA48"/>
			<stop  offset="0.503" style="stop-color:#87FF48"/>
			<stop  offset="0.5651" style="stop-color:#83FD48"/>
			<stop  offset="0.6282" style="stop-color:#77F648"/>
			<stop  offset="0.6916" style="stop-color:#62EC48"/>
			<stop  offset="0.7515" style="stop-color:#48DE48"/>
			<stop  offset="0.7811" style="stop-color:#48DC48"/>
			<stop  offset="0.7917" style="stop-color:#48D548"/>
			<stop  offset="0.7993" style="stop-color:#48CA48"/>
			<stop  offset="0.8" style="stop-color:#48C848"/>
			<stop  offset="0.9576" style="stop-color:#87FF48"/>
			<stop  offset="0.9785" style="stop-color:#85FD48"/>
			<stop  offset="0.9861" style="stop-color:#7EF748"/>
			<stop  offset="0.9914" style="stop-color:#73ED48"/>
			<stop  offset="0.9957" style="stop-color:#62DF48"/>
			<stop  offset="0.9994" style="stop-color:#4CCC48"/>
			<stop  offset="1" style="stop-color:#48C848"/>
		</linearGradient>
		<path fill="url(#SVGID_8_)" d="M496.2,513.699c0,5.5-4.5,10-10,10h-38.7c-5.5,0-10-4.5-10-10V185c0-5.5,4.5-10,10-10h38.7
			c5.5,0,10,4.5,10,10V513.699z"/>
	</g>
</g>
<g id="Ebene_5">
	<g>
		<linearGradient id="SVGID_9_" gradientUnits="userSpaceOnUse" x1="116.8003" y1="408.1995" x2="116.8003" y2="291.0008">
			<stop  offset="0" style="stop-color:#48BD48"/>
			<stop  offset="0.0854" style="stop-color:#63CB48"/>
			<stop  offset="0.1877" style="stop-color:#7DD948"/>
			<stop  offset="0.2485" style="stop-color:#87DE48"/>
			<stop  offset="0.2922" style="stop-color:#87E748"/>
			<stop  offset="0.4038" style="stop-color:#87F948"/>
			<stop  offset="0.4848" style="stop-color:#87FF48"/>
			<stop  offset="0.6788" style="stop-color:#87FF48"/>
			<stop  offset="0.7592" style="stop-color:#7CF448"/>
			<stop  offset="0.9015" style="stop-color:#5FD648"/>
			<stop  offset="1" style="stop-color:#48BD48"/>
		</linearGradient>
		<path fill="url(#SVGID_9_)" d="M146.1,398.199c0,5.5-4.5,10-10,10H97.5c-5.5,0-10-4.5-10-10V301c0-5.5,4.5-10,10-10h38.6
			c5.5,0,10,4.5,10,10V398.199z"/>
	</g>
	<g>
		<linearGradient id="SVGID_10_" gradientUnits="userSpaceOnUse" x1="583.0508" y1="407.6995" x2="583.0508" y2="291.201">
			<stop  offset="0" style="stop-color:#48BD48"/>
			<stop  offset="0.0854" style="stop-color:#63CB48"/>
			<stop  offset="0.1877" style="stop-color:#7DD948"/>
			<stop  offset="0.2485" style="stop-color:#87DE48"/>
			<stop  offset="0.2922" style="stop-color:#87E748"/>
			<stop  offset="0.4038" style="stop-color:#87F948"/>
			<stop  offset="0.4848" style="stop-color:#87FF48"/>
			<stop  offset="0.6788" style="stop-color:#87FF48"/>
			<stop  offset="0.7592" style="stop-color:#7CF448"/>
			<stop  offset="0.9015" style="stop-color:#5FD648"/>
			<stop  offset="1" style="stop-color:#48BD48"/>
		</linearGradient>
		<path fill="url(#SVGID_10_)" d="M612.2,397.699c0,5.5-4.5,10-10,10h-38.3c-5.5,0-10-4.5-10-10V301.2c0-5.5,4.5-10,10-10h38.3
			c5.5,0,10,4.5,10,10V397.699z"/>
	</g>
</g>
<g id="Ebene_3" display="none">
	<linearGradient id="SVGID_11_" gradientUnits="userSpaceOnUse" x1="203.8999" y1="349.5999" x2="262.5" y2="349.5999">
		<stop  offset="0" style="stop-color:#FFFFFF"/>
		<stop  offset="1" style="stop-color:#000000"/>
	</linearGradient>
	<rect x="203.9" y="175" display="inline" fill="url(#SVGID_11_)" width="58.6" height="349.199"/>
	<linearGradient id="SVGID_12_" gradientUnits="userSpaceOnUse" x1="87.8999" y1="350.2" x2="146.1001" y2="350.2">
		<stop  offset="0" style="stop-color:#FFFFFF"/>
		<stop  offset="1" style="stop-color:#000000"/>
	</linearGradient>
	<rect x="87.9" y="292.2" display="inline" fill="url(#SVGID_12_)" width="58.2" height="115.999"/>
	<linearGradient id="SVGID_13_" gradientUnits="userSpaceOnUse" x1="437.5" y1="349.3499" x2="496.2002" y2="349.3499">
		<stop  offset="0" style="stop-color:#FFFFFF"/>
		<stop  offset="1" style="stop-color:#000000"/>
	</linearGradient>
	<rect x="437.5" y="175" display="inline" fill="url(#SVGID_13_)" width="58.7" height="348.699"/>
</g>
</svg>
