<?xml version="1.0" encoding="utf-8"?>
<!-- Generator: Adobe Illustrator 14.0.0, SVG Export Plug-In . SVG Version: 6.00 Build 43363)  -->
<!DOCTYPE svg PUBLIC "-//W3C//DTD SVG 1.1//EN" "http://www.w3.org/Graphics/SVG/1.1/DTD/svg11.dtd">
<svg version="1.1" id="Ebene_1" xmlns="http://www.w3.org/2000/svg" xmlns:xlink="http://www.w3.org/1999/xlink" x="0px" y="0px"
	 width="120px" height="40px" viewBox="0 0 120 40" enable-background="new 0 0 120 40" xml:space="preserve">
<g>
	<path fill="#FFFFFF" d="M13.743,29.039c-1.804,0-3.25-0.539-4.339-1.617S7.77,24.925,7.77,23.164V8.678H1.797V4.949h10.098v18.117
		c0,0.683,0.192,1.228,0.578,1.634c0.385,0.407,0.908,0.61,1.567,0.61h5.313v3.729H13.743z"/>
	<path fill="#FFFFFF" d="M26.184,34.979l2.574-6.93l-6.996-17.16h4.488l3.564,9.273c0.198,0.506,0.385,1.117,0.561,1.832
		c0.176,0.715,0.308,1.304,0.396,1.766c0.11-0.462,0.258-1.051,0.446-1.766c0.187-0.715,0.368-1.325,0.544-1.832l3.399-9.273h4.29
		l-8.943,24.09H26.184z"/>
	<path fill="#FFFFFF" d="M47.799,29.039l-6.237-18.15h4.29l3.663,11.021c0.22,0.66,0.413,1.343,0.578,2.047s0.292,1.265,0.379,1.683
		c0.11-0.418,0.242-0.979,0.396-1.683s0.33-1.375,0.528-2.014l3.597-11.055h4.257l-6.204,18.15H47.799z"/>
	<path fill="#FFFFFF" d="M70.238,29.369c-1.54,0-2.882-0.297-4.025-0.892c-1.145-0.594-2.029-1.425-2.656-2.491
		c-0.628-1.066-0.941-2.315-0.941-3.746v-4.554c0-1.43,0.313-2.678,0.941-3.746c0.627-1.067,1.512-1.897,2.656-2.491
		c1.144-0.594,2.485-0.891,4.025-0.891c1.519,0,2.844,0.297,3.977,0.891c1.133,0.594,2.014,1.424,2.641,2.491
		c0.627,1.067,0.94,2.316,0.94,3.746v3.267H66.608v1.287c0,2.574,1.222,3.861,3.663,3.861c1.892,0,3.003-0.627,3.333-1.881h4.06
		c-0.309,1.563-1.139,2.811-2.492,3.746C73.819,28.901,72.175,29.369,70.238,29.369z M66.608,17.687v0.693l7.194-0.033v-0.693
		c0-1.254-0.297-2.216-0.891-2.888c-0.595-0.671-1.485-1.006-2.674-1.006c-1.21,0-2.117,0.341-2.722,1.023
		C66.911,15.465,66.608,16.433,66.608,17.687z"/>
	<path fill="#FFFFFF" d="M92.942,29.039c-1.804,0-3.25-0.539-4.34-1.617c-1.089-1.078-1.633-2.497-1.633-4.258V8.678h-5.974V4.949
		h10.099v18.117c0,0.683,0.192,1.228,0.577,1.634c0.385,0.407,0.907,0.61,1.567,0.61h5.313v3.729H92.942z"/>
	<path fill="#FFFFFF" d="M105.382,34.979l2.574-6.93l-6.996-17.16h4.488l3.564,9.273c0.197,0.506,0.384,1.117,0.561,1.832
		c0.176,0.715,0.308,1.304,0.396,1.766c0.109-0.462,0.258-1.051,0.445-1.766c0.187-0.715,0.368-1.325,0.544-1.832l3.399-9.273h4.29
		l-8.943,24.09H105.382z"/>
</g>
</svg>
