<?xml version="1.0" encoding="utf-8"?>
<!-- Generator: Adobe Illustrator 14.0.0, SVG Export Plug-In . SVG Version: 6.00 Build 43363)  -->
<!DOCTYPE svg PUBLIC "-//W3C//DTD SVG 1.1//EN" "http://www.w3.org/Graphics/SVG/1.1/DTD/svg11.dtd">
<svg version="1.1" id="Ebene_1" xmlns="http://www.w3.org/2000/svg" xmlns:xlink="http://www.w3.org/1999/xlink" x="0px" y="0px"
	 width="120px" height="40px" viewBox="0 0 120 40" enable-background="new 0 0 120 40" xml:space="preserve">
<g>
	<path d="M13.512,29.039c-1.65,0-2.97-0.484-3.96-1.453c-0.99-0.967-1.485-2.254-1.485-3.86V7.918H1.863v-2.97h9.471v18.744
		c0,0.726,0.203,1.304,0.61,1.733c0.407,0.428,0.962,0.643,1.667,0.643h5.511v2.971H13.512z"/>
	<path d="M26.514,34.979l2.64-7.029l-6.963-17.061h3.564l4.224,10.725c0.154,0.418,0.308,0.908,0.462,1.469s0.275,1.029,0.363,1.402
		c0.087-0.373,0.214-0.842,0.379-1.402s0.324-1.051,0.479-1.469l3.927-10.725h3.432l-9.108,24.09H26.514z"/>
	<path d="M48.294,29.039l-6.27-18.15h3.366l4.092,11.913c0.242,0.704,0.445,1.397,0.61,2.079s0.292,1.21,0.379,1.584
		c0.11-0.374,0.242-0.902,0.396-1.584s0.352-1.375,0.594-2.079l3.96-11.913h3.399l-6.303,18.15H48.294z"/>
	<path d="M70.206,29.369c-1.452,0-2.723-0.293-3.812-0.875c-1.09-0.582-1.931-1.396-2.524-2.441
		c-0.595-1.045-0.892-2.271-0.892-3.68v-4.852c0-1.386,0.297-2.601,0.892-3.646c0.594-1.044,1.435-1.859,2.524-2.442
		c1.089-0.583,2.359-0.875,3.812-0.875c1.451,0,2.722,0.292,3.812,0.875c1.089,0.583,1.93,1.397,2.524,2.442
		c0.594,1.045,0.891,2.261,0.891,3.646v3.234H66.18v1.618c0,1.408,0.347,2.475,1.039,3.201c0.693,0.726,1.688,1.088,2.987,1.088
		c1.1,0,1.979-0.191,2.64-0.577c0.66-0.385,1.077-0.962,1.254-1.732h3.234c-0.221,1.54-0.985,2.761-2.294,3.663
		S72.12,29.369,70.206,29.369z M66.18,17.521v0.891h8.085v-0.891c0-1.386-0.347-2.447-1.039-3.185
		c-0.693-0.737-1.7-1.105-3.02-1.105c-1.32,0-2.321,0.369-3.003,1.105C66.521,15.074,66.18,16.136,66.18,17.521z"/>
	<path d="M92.712,29.039c-1.65,0-2.971-0.484-3.96-1.453c-0.99-0.967-1.485-2.254-1.485-3.86V7.918h-6.204v-2.97h9.471v18.744
		c0,0.726,0.203,1.304,0.61,1.733c0.407,0.428,0.963,0.643,1.667,0.643h5.511v2.971H92.712z"/>
	<path d="M105.712,34.979l2.641-7.029l-6.963-17.061h3.563l4.225,10.725c0.153,0.418,0.308,0.908,0.462,1.469
		c0.153,0.561,0.274,1.029,0.362,1.402c0.088-0.373,0.215-0.842,0.38-1.402s0.324-1.051,0.479-1.469l3.927-10.725h3.433
		l-9.108,24.09H105.712z"/>
</g>
</svg>
